<svg width="134.002" height="150.3807" viewBox="0 0 35.4547 39.7882" xmlns="http://www.w3.org/2000/svg">
  <defs>
    <path id="a" d="M589.7985 312.7359h414.9993v287.7646H589.7985z"/>
  </defs>
  <path style="font-style:normal;font-variant:normal;font-weight:400;font-stretch:normal;font-size:50.8px;font-family:'Hiragino Sans';-inkscape-font-specification:'Hiragino Sans, Normal';font-variant-ligatures:normal;font-variant-caps:normal;font-variant-numeric:normal;font-variant-east-asian:normal;fill:#4c4c4c;fill-opacity:1;stroke-width:.264583" d="M111.4594 107.6575v.001h.001l-.0006-.0005zm.002.008v.0005h.0005v-.0005zm.0005.001c.16.9876.262 1.8823.3245 2.8288.6334.0973 1.1496.4667 1.5937 1.0702.3478.4727.4862.9691.694 1.5146.0917.3246.1962.6462.275.9741.4126 1.7196.6303 3.5258.6738 5.2922.013.5126-.003 1.0257-.005 1.5384-.003.0625-.005.125-.008.1876.5907.1426 1.1422.6472 1.4402 1.5183.0471-.0486.095-.0961.1426-.1437v-10.5694h.0796c-.008-.0315-.003-.051.008-.0672-.005-.0899.0204-.1832.077-.2749.003-.004.006-.007.009-.0108-.004-.0195-.01-.0386-.016-.0579-.001-.003-.002-.005-.003-.008-.008-.024.003-.039.016-.0398.01-.0006.0214.007.0274.0258.001.002.002.005.003.008.003.01.006.0193.008.0289a.0061.0061 0 0 0 .001-.002c.093-.0887.2062-.1332.3271-.1323a.4926.4926 0 0 1 .123.016c.0178.005.01.002.0258.007.002.0007.005.001.007.002.003-.0005.006-.002.009-.003.0496-.003.1006.009.151.0326.052-.02.1062-.0338.1622-.035a.3692.3692 0 0 1 .031.0004c.0411 0 .0824.001.1235.002.0587.002.117.005.1752.0145.047.007.0942.0152.141.0232.115.003.23.008.3448.016.0616.005.1228.0124.1844.015h.0006c.0223 0 .0447-.0004.0671-.0005a6.556 6.556 0 0 0 .1174-.001c.0627-.002.1254-.004.188-.007a12.823 12.823 0 0 0 .4155-.0284c.135-.0105.2701-.0179.4052-.0269l-.0005-.001c.0246-.002.0485-.002.0718-.003.13-.001.2394.0211.3276.0584.003-.0004.007-.0007.0103-.001a.903.903 0 0 1 .1524-.0212c.0647-.004.1295-.004.1943-.004.0857.003.1701.0173.2553.0253.047.004.094.006.141.008.048.002.0962.002.1443.002.062.003.0775-.0002.1287-.008a3.15 3.15 0 0 1 .1937-.0207c.0493-.004.099-.005.1483-.006a7.1901 7.1901 0 0 1 .109-.001h.9919c.0759-.002.1514.0008.2268.0114l.0377.006c.0251.004.0414.0134.0646.0186.0157.0002.0314.0002.047.0005.074.002.1474.004.2212.007.0998.004.1994.0104.2987.0212.3483-.0236.6966-.0482 1.0454-.064.2349-.009.4699-.0202.7049-.0223.0783-.0007.1567.001.235.002.0354.001.0707.003.106.005.0716-.0302.1582-.0493.259-.0527a1.0052 1.0052 0 0 1 .1394.005c.1955.0192.3914.0278.5871.0434.1688.0143.3375.0318.5064.0434.099.01.1972.0261.2956.0398.0323.003.0642.007.0961.012.0175-.001.0343-.0006.0527-.0006h.0982c.019-.0237.0582-.0386.1246-.0403a.5793.5793 0 0 1 .0956.005c.0465.005.0476.005.077.0114.026-.003.0509-.0103.0775-.009.0525.003.1047.008.1565.0181.0481.008.0972.0177.1437.031a2.471 2.471 0 0 1 .1504.0207h.6826c.1135-.004.2215.0277.326.0677a.3577.3577 0 0 0 .0962.0331.9282.9282 0 0 0 .0744.006c.0622-.0003.1237.0101.1845.0222.0373.007.075.009.1126.0124a.1945.1945 0 0 0 .013.0005c.0137.001.0238.005.0371.006.0538-.0234.118-.0372.1918-.0377.0895-.0006.1929.0178.3085.061.0845.0315.168.0653.25.1029.007.003.0139.007.0208.0103h.005c.1029.001.223.0296.356.0946.0591.0288.1215.0506.182.0765.0786.0286.153.0675.231.0982.0636.02.1259.0432.1875.0687.05.0208.0983.0467.1483.0677.0328.0134.0617.0316.0925.0486-.005-.003-.009-.006 0-.003a.9732.9732 0 0 1 .14.0827c.0173.0119.0276.0194.0399.0279-.0222-.0135-.0387-.0174-.0553-.0217.0135.006.0265.0139.0403.0212.1345.0705.2725.134.4072.204.1115.0568.2197.1187.3235.1887.0517.0281.0955.0702.1473.0982.062.0398.1167.089.1705.139.008.009.0274.026.0429.0403l.0005.0005c.0204.0161.0355.0358.0527.0548.004.002.007.004.0119.006.0793.0428.1596.0852.232.1396.0486.0378.0983.0734.1473.1106.0568.0425.1125.0862.1638.1353.0552.054.1108.1081.1628.1654.0492.0571.1007.1119.1468.1716.0502.0594.0994.1205.139.1876.0212.0346.043.0684.065.1028.0373.0486.069.0944.077.1033.0338.047.0538.0718.0745.1158.002.005-.006-.008-.009-.0119.0319.0426.0615.0867.0863.1338-.003-.004-.0117-.0148-.008-.0109.0284.0423.0567.0844.08.1298.008.0134.008.0154.009.018-.009-.0158-.0135-.0235.002.008.008.0112.014.0228.0213.0342l.001.002a.7125.7125 0 0 1 .0558.1033c.0225.0496.0358.0959.0512.1416.0287.1184.0299.1211.0274.1111.0143.043.0344.1009.0398.1488.007.0511.0295.0993.0315.1514.002.0148.007.029.0103.0434.03.0413.0587.088.0853.1411l.0274.0553c.07.14.0978.2661.095.3731.0204.0552.0412.1105.0575.167.2987.1907.5827.4116.803.5875.45.3673.8767.7796 1.1519 1.2986.1946.367.231.5452.355.939.1626.6279.2354 1.2746.1313 1.9187-.0628.3883-.1213.5111-.247.8806-.2042.5719-.5474 1.0715-.877 1.5756l-.57.8718a55.4473 55.4473 0 0 1-1.1115 1.606c1.0766-.4353 1.7476-.8671 2.5187-1.5647 1.8286-1.6763 2.743-3.9117 2.743-6.858 0-6.1464-4.2163-9.5508-11.6836-9.5508h-11.176c-2.994 0-4.3153-.051-5.7868-.1018zm24.0016 9.5395v.0015l-.0005.0005a.7008.7008 0 0 1-.0181.0894c.0798.0917.1403.2284.153.4228.0204.317.041.6341.049.9518.0009.0442.0009.088.002.1323.009.0933-.001.1974.009.2853.0198.1799.0186.3615.0186.5426 0 .1478-.004.3005-.0109.4532.6589-.008.3624.3617.1246.7813-.0641.1036-.1307.206-.1969.308-.063.703-.2143 1.4-.3896 2.0846-.0857.3067-.175.6137-.2837.9132-.0216.0595-.0427.1187-.0692.1762a.1537.1537 0 0 0-.008.0248c.1547-.2245.311-.4481.4625-.675l.57-.8717c.2942-.4497.606-.8939.7916-1.403.106-.3004.153-.3944.2088-.709.0951-.536.0306-1.0758-.1008-1.6-.0888-.2922-.132-.4816-.2702-.7528-.2271-.4456-.595-.7913-.9767-1.1033-.03-.0241-.0403-.033-.0646-.0527zm-.8062 7.273c-.032.1-.061.2012-.0935.3012.0674-.0965.1325-.1947.1995-.2915a1.8557 1.8557 0 0 1-.106-.01zm-1.2257.5735a23.3947 23.3947 0 0 1-.4201.2548l-.3297.1964c-.2694.4107-.5409.8202-.815 1.2278-.2848.3985-.4943.6143-.926-.1096-.013-.0216-.0163-.044-.0171-.0677-.0792.0498-.1591.0983-.244.1375-.1591.0735-.33.1193-.495.1788-.0438-.0772-.0928-.1521-.141-.2274-.8935.5919-1.7968 1.1693-2.7012 1.7446h.9844c1.1371 0 2.152.1148 3.0562.3308.0497-.0522.1004-.1027.1467-.1592.6694-.746 1.3306-1.5 1.9472-2.2908-.0247-.005-.0453-.0105-.0703-.015.043-.014.0703-.0265.1121-.0403.0835-.1087.1613-.2216.2434-.3313-.1962-.0877-.26-.3579-.3276-.5638-.0279-.0848-.0209-.1749-.003-.2656zm.897 1.3901v.0005l.0006.0005.0005.0006v.001c-.069.0917-.1372.184-.2072.275-.6015.7738-1.2464 1.5115-1.8996 2.2416 2.8647.9853 4.334 3.2363 4.334 6.6896 0 4.6733-2.8447 7.1628-8.077 7.1628h-11.8886V130.465c-.282 1.9076-1.6501 2.566-2.683 1.9766-.345 2.837-.7605 5.665-1.1612 8.494-.1858 1.2505-.3188 2.5085-.5038 3.759-.063.3665-.1697 1.6483-.5767 1.6294-.0495-.002-.0976-.0117-.1468-.016-.0366.2387-.0426.4387-.0868.6976 1.8796-.1016 3.2788-.0786 5.8188-.0786h11.7347c7.975 0 12.4969-3.9122 12.4969-10.8205 0-3.2512-1.067-5.842-3.099-7.6709-1.1855-1.0536-2.2228-1.5755-4.0556-1.9931zm-7.4558.354c-.1488.1342-.5041.5196-.8253.5865-.307.3265-.607.66-.8934 1.0041h.7162c.0983-.0613.216-.1342.2997-.186.7285-.4637 1.458-.9263 2.1839-1.3943-.307.0578-.6161.1025-.9256.1442-.2736.037-.4594-.0388-.5555-.1545zm-2.0862.8056c-.1564.0672-.3127.1349-.4692.2021-.2974.1272-.5943.256-.8924.3814-.1608.0676-.3214.1354-.4827.2015h1.2004c.1412-.185.2872-.3644.413-.5157.0755-.091.1535-.18.231-.2693zm-3.6297.0708v.0016h-.0005c-.0658.0467-.1318.0835-.2005.0925-.1394.2193-.2946.4282-.4708.619h1.019c-.0347-.1232-.0308-.285.0196-.492.0005-.005 0-.01.0006-.0154.005-.0494.023-.0928.0465-.1344.004-.008.009-.0167.0134-.0248.002-.003.003-.007.005-.01-.1406.003-.2902-.006-.432-.0367z" transform="translate(-106.0287 -107.2226)"/>
  <path style="font-style:normal;font-variant:normal;font-weight:400;font-stretch:normal;font-size:192px;font-family:Monospace;-inkscape-font-specification:Monospace;font-variant-ligatures:normal;font-variant-caps:normal;font-variant-numeric:normal;font-variant-east-asian:normal;white-space:pre;shape-inside:url(#a);fill:#4c4c4c;stroke:#fff;stroke-width:.254039;stroke-opacity:1" d="M111.5162 107.3733c.1924 1.2706.2974 2.3254.3535 3.4427.086-.0008.1721-.004.2583-.007.0907-.002.1816-.003.2719.004.4162.0325.8539.1794 1.1994.3958.3808.2385.4024.2953.696.5974.1445.2843.3183.5578.4336.8532.1004.2572.1775.9376.2041 1.2004.0723.7143.0937 1.4327.122 2.1492.0504 1.3201.0282 2.6405.0434 3.961.0135 1.1698.021 1.1947.0605 2.3498.0237.7572.0753 1.5129.1307 2.2686.0196.002.0393.004.059.005.004.0346.009.0697.0118.1043.008.106.0114.1958.0134.2915a3.2705 3.2705 0 0 1 .0966-.0429c.001-.0007.002-.0008.004-.002.002-.001.005-.002.008-.003.052-.0211.0872-.0316.1075-.031.0178.0005.0262.009.0305.0232.0634.0168.0721.0723.0868.1287.013.0565.0255.1133.0377.17a.4592.4592 0 0 1 .0951.0165c.0128-.0005.0255-.001.0382-.001.006-.0002.002.009-.0005.016.0008.0005.002 0 .003.0005.0284.0132-.001.0588-.002.088-.006.1223-.0157.2445-.0227.3668-.0008.0166-.0004.012-.001.0243a1.57 1.57 0 0 0 .0455.1643H115.9c.0515.148-.0294.2317-.1189.2186-.007.006-.0123.0172-.0202.0217-.004.0133-.008.0266-.0129.0398l-.001-.0005c-.0388.1101-.1142.1502-.1777.1431a11.948 11.948 0 0 1-.0212.2801c-.004.041-.004.0665-.009.0827.0001-.002-.0001-.004-.001-.004l-.0006.0103v.001c-.009.0215-.0374.0195-.1023.016.0107.1459.0226.2917.0295.4377.009.1992.0153.3982.0217.5974.1668-.1482.3665-.2237.5664-.2237.4917-.0001.9832.4486.9834 1.3456v.216c0 .049.0001.0982.0005.1473h10.4877c8.2321 0 12.9579-4.0735 12.9579-11.1895 0-6.7415-4.5229-10.5332-12.7041-10.5332H117.31c-2.3883 0-3.9636-.047-5.793-.1406zm14.3986 3.96.0005.0005a1.311 1.311 0 0 1 .1395.005c.032.003.0641.005.0961.008h.7752c.0338 0 .0646.003.0935.007h.5039c1.0333 0 1.9659.0939 2.8034.2744a.961.961 0 0 1 .2057.0512c1.4864.354 2.6475 1.0007 3.4788 1.9244.0115.0121.0234.0238.0346.0362.0493.0571.1007.1119.1468.1716a2 2 0 0 1 .0832.1043c.1367.1776.2587.3673.3736.5628.02.0304.0397.061.0558.094-.002-.004-.009-.0148-.007-.0109.008.0134.008.015.009.0176-.007-.0128-.009-.0147-.002-.0005.004.007.007.013.011.0196.005.008.01.0155.015.0232l.001.002a.739.739 0 0 1 .0531.0982c.0008.002.002.003.003.005.505.969.7638 2.1396.7638 3.5088 0 4.588-2.8966 7.1629-8.029 7.1629h-10.8748v-14.0452h.414a.499.499 0 0 1 .0672-.004.4416.4416 0 0 1 .061.004h6.5494a.0813.0813 0 0 1 .031-.008v-.0005a.2216.2216 0 0 1 .059.008h1.421a23.99 23.99 0 0 1 .2677-.005c.0903-.0007.1805-.0004.2708-.0005.039-.007-.1098.0238-.0653.0222zm-13.2323 2.9683c-.015.008-.0486.0302-.0785.0485.0202-.008.041-.0155.0605-.0248.009-.004.027-.0283.0181-.0238zm2.2231 22.2224c-.0005.003-.001.007-.002.01-.0832.3939-.1567.789-.2428 1.1823-.0602.2525-.0862.5098-.1096.767-.013.1443-.0197.2892-.0258.434-.0008.0194-.005.035-.006.0543a37.585 37.585 0 0 0 .4403-.353c.0974-.5679.1872-1.137.2625-1.7079.004-.036.009-.072.014-.108a1.7041 1.7041 0 0 1-.201-.1467c-.0425-.0443-.0865-.0876-.1292-.1318zm-3.1016 4.854c-.0389.4489-.0922.8906-.154 1.3394.0754-.1013.156-.1998.23-.3018.151-.1492.2942-.3055.4532-.4475.1852-.1654.3636-.301.5472-.432a.9657.9657 0 0 1-.1095-.0274c-.3267.054-.6609.0149-.9669-.1308z" transform="translate(-106.0287 -107.2226)"/>
  <path style="font-style:normal;font-variant:normal;font-weight:700;font-stretch:normal;font-size:115.621px;font-family:'Hiragino Sans';-inkscape-font-specification:'Hiragino Sans, Bold';font-variant-ligatures:normal;font-variant-caps:normal;font-variant-numeric:normal;font-variant-east-asian:normal;fill:#4c4c4c;fill-opacity:1;stroke:none;stroke-width:.821411;stroke-opacity:1" d="M106.0287 107.5143v4.5414h1.6231c.5695 0 1.0819.0608 1.5374.1825.465.1216.8542.3516 1.1674.6895.3226.3515.5647.865.726 1.5408.1614.6623.2419 1.5206.2419 2.5748v2.21c0 1.8923.3702 3.4737 1.1105 4.7442.7497 1.2706 1.8128 2.2772 3.189 3.0205v.4869c-1.3762.7434-2.4393 1.7505-3.189 3.021-.7403 1.2705-1.1105 2.852-1.1105 4.7442v2.21c0 1.0543-.0805 1.9126-.2419 2.5749-.1613.6758-.4034 1.1893-.726 1.5407-.3132.338-.7024.5674-1.1674.689-.4555.1217-.968.183-1.5374.183h-1.6231v4.5414h3.97c1.8412 0 3.4052.1003 4.4966-1.2378 1.1008-1.3246 1.9012-4.087 1.9012-6.655v-2.9804c0-2.3364.1342-5.7526.2584-7.0096 1.1204.166 2.0149-.9459 3.5001-.1817l1.4834.0232.0141-1.7616-1.744.0393c-1.67.0377-2.6048 1.0675-3.3545.1348-.7498-.9461-.5744-6.6337-.5744-9.0396v-2.9804c0-2.5681-.286-5.3067-1.387-6.6313-1.0913-1.3381-2.799-1.2147-4.6402-1.2147z" transform="translate(-106.0287 -107.2226)"/>
</svg>
