<?xml version="1.0" standalone="no"?>
<!DOCTYPE svg PUBLIC "-//W3C//DTD SVG 20010904//EN"
 "http://www.w3.org/TR/2001/REC-SVG-20010904/DTD/svg10.dtd">
<svg version="1.0" xmlns="http://www.w3.org/2000/svg"
 width="600.000000pt" height="600.000000pt" viewBox="0 0 600.000000 600.000000"
 preserveAspectRatio="xMidYMid meet">
<metadata>
Created by potrace 1.14, written by Peter Selinger 2001-2017
</metadata>
<g transform="translate(0.000000,600.000000) scale(0.100000,-0.100000)"
fill="#000000" stroke="none">
<path d="M1139 5991 c-1 -3 -1 -13 0 -21 1 -13 -50 -15 -404 -15 l-405 0 0
-342 0 -343 168 -1 c172 -1 177 -1 252 -13 141 -23 242 -97 298 -219 25 -53
50 -140 58 -202 3 -22 8 -51 11 -65 2 -14 6 -126 9 -250 7 -388 12 -544 19
-590 28 -200 93 -373 196 -528 60 -90 209 -240 294 -297 33 -22 62 -43 63 -47
2 -5 10 -8 18 -8 8 0 15 -8 15 -17 1 -10 2 -39 4 -65 l2 -48 -82 -55 c-94 -62
-229 -192 -294 -281 -102 -142 -181 -336 -207 -504 -2 -14 -8 -52 -13 -84 -5
-33 -10 -188 -11 -345 -2 -369 -9 -487 -30 -561 -5 -16 -7 -30 -5 -30 9 0 -45
-142 -70 -184 -50 -85 -150 -153 -251 -171 -21 -4 -50 -9 -64 -12 -14 -2 -101
-6 -195 -7 -93 -2 -173 -4 -177 -5 -5 -1 -8 -155 -8 -342 l0 -342 603 7 c331
3 1167 8 1857 10 690 2 1275 7 1300 10 25 3 65 8 90 11 25 2 59 7 75 10 44 7
96 16 125 21 31 5 149 34 170 42 8 3 23 7 33 9 65 12 311 118 382 163 17 11
37 23 45 27 56 28 148 103 239 194 117 118 110 110 169 196 78 114 179 334
195 424 3 13 10 44 17 68 33 122 45 246 45 451 0 157 -6 254 -19 316 -2 12 -7
37 -10 55 -29 180 -118 395 -230 559 -55 80 -289 320 -312 320 -3 0 -24 14
-45 31 -21 17 -39 27 -39 23 0 -4 -8 0 -17 8 -10 8 -35 22 -55 32 -21 9 -38
19 -38 22 0 7 27 34 34 34 23 0 226 196 276 266 114 161 149 223 204 361 40
100 90 288 101 378 4 33 9 76 12 95 8 63 8 374 0 440 -17 142 -31 217 -61 317
-113 372 -342 647 -691 833 -82 43 -268 120 -292 120 -7 0 -21 4 -31 9 -21 11
-104 35 -114 33 -4 -1 -18 2 -31 7 -13 5 -39 12 -58 15 -19 3 -45 8 -59 11
-14 3 -38 7 -55 9 -16 2 -46 7 -65 11 -19 3 -60 8 -90 11 -30 3 -73 7 -95 10
-22 2 -548 6 -1170 9 -1017 3 -1247 6 -1507 19 -43 2 -79 1 -79 -3z m2439
-636 c119 -2 226 -6 237 -8 11 -3 45 -8 75 -12 60 -8 58 -8 146 -29 338 -83
566 -276 666 -566 24 -68 34 -111 53 -220 14 -81 7 -393 -10 -420 -2 -3 -6
-24 -10 -47 -14 -96 -80 -253 -146 -350 -49 -71 -158 -176 -240 -230 -66 -43
-198 -107 -248 -119 -9 -2 -48 -12 -87 -23 -78 -21 -118 -29 -179 -36 -144
-16 -239 -20 -257 -9 -4 3 -8 2 -8 -3 0 -9 -1580 -9 -1604 0 -13 5 -15 134
-14 1036 0 953 1 1031 16 1035 10 2 320 4 690 4 370 -1 675 2 679 5 3 4 10 4
15 1 5 -3 106 -7 226 -9z m715 -2625 c-4 -14 0 -20 11 -20 8 0 41 -12 73 -27
32 -14 60 -27 63 -27 16 -4 153 -100 194 -137 113 -102 232 -305 261 -446 38
-181 49 -366 32 -533 -19 -185 -91 -379 -187 -505 -24 -31 -141 -147 -180
-177 -75 -59 -276 -150 -385 -174 -67 -16 -169 -34 -225 -40 -36 -4 -506 -8
-1045 -8 l-980 -1 0 978 c0 537 2 1000 5 1029 4 39 9 52 23 54 15 2 22 -7 18
-29 -1 -8 1881 -3 1919 6 14 3 50 8 80 11 30 3 64 8 75 10 41 7 91 16 127 21
29 5 115 28 125 34 0 1 -1 -8 -4 -19z"/>
</g>
</svg>
